<svg xmlns="http://www.w3.org/2000/svg" width="122.785" height="51.233" viewBox="0 0 122.785 51.233" style="enable-background:new 0 0 352.3 147.1;" xml:space="preserve">
<style type="text/css">
	.st0{fill:#D2EB23;}
</style>
        <path class="st0" d="M48.406,12.363H43.073V9.227h3.869V6.055H43.073V3.441h4.74V.2H39.1V15.674h9.306Z" transform="translate(-25.473 -0.13)"></path>
        <path class="st0" d="M135.806,12.363h-5.3V9.227h3.869V6.055h-3.869V3.441h4.74V.2H126.5V15.674h9.306Z" transform="translate(-82.412 -0.13)"></path>
        <path class="st0" d="M75.421,15.644l.836-4.5a49.235,49.235,0,0,0,.732-4.879h.035c.07.976.418,3,.767,4.879l.8,4.5h4.252L86.887.1H82.635l-.8,3.869c-.279,1.5-.767,4.531-.836,5.925h-.035a28.818,28.818,0,0,0-.627-4.566L79.324.135H74.863l-.8,4.322c-.418,2.3-.7,4.217-.8,5.472a40.172,40.172,0,0,0-.906-5.576L71.517.1H67.3l3.764,15.544h4.357Z" transform="translate(-43.845 -0.065)"></path>
        <path class="st0" d="M3.973,9.34c.871,0,1.22.209,1.812,1.812l1.638,4.322h4.6c-.488-1.15-1.812-4.043-2.3-5.054A3.217,3.217,0,0,0,8.155,8.748c1.812-.279,3.206-1.673,3.206-4.322C11.362,1.847,9.9,0,5.332,0H0V15.474H3.973Zm0-6.064H5.088c1.255,0,1.847.383,1.847,1.464,0,1.011-.488,1.673-1.812,1.673H3.973Z"></path>
        <path class="st0" d="M57.994,35v6.413H0V74.035H122.785V35ZM105.15,47.965h2.718V62.289H105.15Zm-67.4,6.8a7.254,7.254,0,0,1,1.777-5.228,6.766,6.766,0,0,1,5.054-1.847,6.485,6.485,0,0,1,4.566,1.5,6.628,6.628,0,0,1,1.743,4.6v.139L48.2,54.2v-.174A5.155,5.155,0,0,0,47.19,51a3.433,3.433,0,0,0-2.614-.871A4.135,4.135,0,0,0,41.4,51.171a5.362,5.362,0,0,0-.941,3.555v2.649H37.78V54.761ZM19.273,60.477a6.96,6.96,0,0,1-1.987,5.158,7.629,7.629,0,0,1-5.4,1.917H6.448V53.193H9.2V65.008H11.92a4.566,4.566,0,0,0,3.52-1.255,4.848,4.848,0,0,0,1.15-3.311v-5.3a4.97,4.97,0,0,0-1.15-3.381A4.419,4.419,0,0,0,11.92,50.4H6.448V47.93h5.507a7.441,7.441,0,0,1,5.4,1.952h0a7.242,7.242,0,0,1,1.952,5.228v5.367ZM34.4,67.517H22.759V65.008h4.426V50.4H22.759V47.93l7.18.035V65.008h4.426v2.509Zm16.938-7.249A7.6,7.6,0,0,1,49.63,65.6a6.252,6.252,0,0,1-4.879,1.882,7.268,7.268,0,0,1-5.228-1.812,6.949,6.949,0,0,1-1.812-5.158V60.2h2.684v.314A4.9,4.9,0,0,0,41.4,64a4.624,4.624,0,0,0,3.346,1.011,3.576,3.576,0,0,0,3-1.15,6.7,6.7,0,0,0,.906-3.869h-4.5v-2.44h7.214v2.718Zm15.928-9.794H62.839V62.22h0v2.823h4.426v2.509H55.659V65.043h4.426V53.263h0V50.44H55.659V47.93H67.265Zm18.681-.07H79.916V67.517H77.163V50.4H71.134V47.93H85.911V50.4ZM98.528,67.622,96.855,62.08H90.477L88.8,67.622H86.016l2.579-8.016h7.528l-2.44-8.121-1.6,5.332H89.536l2.823-8.783h2.753l6.308,19.587Zm17.81-.1H105.184V65.008h11.153Z" transform="translate(0 -22.802)"></path>
    </svg>
